# ProBuilder 5.2.4
# https://unity3d.com/unity/features/worldbuilding/probuilder
# 2025-04-27 오후 4:55:34

mtllib ./Brick_test_L.mtl
o Brick_test_L

g Cube
v 1.766476 0.5407891 1.969715
v 0.7664764 0.5407891 1.969715
v 1.766476 1.540789 1.969715
v 0.7664764 1.540789 1.969715
v 0.7664764 0.5407891 0.9697151
v 0.7664764 1.540789 0.9697151
v 1.766476 0.5407891 0.9697151
v 1.766476 1.540789 0.9697151
v 0.7664764 -0.4592109 1.969715
v -0.2335236 -0.4592109 1.969715
v -0.2335236 0.5407891 1.969715
v -0.2335236 -0.4592109 0.9697151
v -0.2335236 0.5407891 0.9697151
v 0.7664764 -0.4592109 0.9697151
v -1.233524 -0.4592109 1.969715
v -1.233524 0.5407891 1.969715
v -1.233524 -0.4592109 0.9697151
v -1.233524 0.5407891 0.9697151
v 1.766476 -0.4592109 1.969715
v 1.766476 -0.4592109 0.9697151

vt 1.766476 0.5407891
vt 0.7664764 0.5407891
vt 1.766476 1.540789
vt 0.7664764 1.540789
vt 1.969715 0.5407891
vt 0.9697151 0.5407891
vt 1.969715 1.540789
vt 0.9697151 1.540789
vt -0.7664764 0.5407891
vt -1.766476 0.5407891
vt -0.7664764 1.540789
vt -1.766476 1.540789
vt -0.9697151 0.5407891
vt -1.969715 0.5407891
vt -0.9697151 1.540789
vt -1.969715 1.540789
vt -1.766476 1.969715
vt -0.7664764 1.969715
vt -1.766476 0.9697151
vt -0.7664764 0.9697151
vt 1.766476 0.9697151
vt 0.7664764 0.9697151
vt 1.766476 1.969715
vt 0.7664764 1.969715

vn 0 0 1
vn -1 0 0
vn 0 0 -1
vn 1 0 0
vn 0 1 0
vn 0 -1 0

usemtl Lit
f 3/3/1 4/4/1 2/2/1 1/1/1
f 4/7/2 6/8/2 5/6/2 2/5/2
f 6/11/3 8/12/3 7/10/3 5/9/3
f 8/15/4 3/16/4 1/14/4 7/13/4
f 8/19/5 6/20/5 4/18/5 3/17/5
f 1/23/6 2/24/6 5/22/6 7/21/6
f 2/3/1 11/4/1 10/2/1 9/1/1
f 11/7/2 13/8/2 12/6/2 10/5/2
f 13/11/3 5/12/3 14/10/3 12/9/3
f 5/15/4 2/16/4 9/14/4 14/13/4
f 5/19/5 13/20/5 11/18/5 2/17/5
f 9/23/6 10/24/6 12/22/6 14/21/6
f 11/3/1 16/4/1 15/2/1 10/1/1
f 16/7/2 18/8/2 17/6/2 15/5/2
f 18/11/3 13/12/3 12/10/3 17/9/3
f 13/15/4 11/16/4 10/14/4 12/13/4
f 13/19/5 18/20/5 16/18/5 11/17/5
f 10/23/6 15/24/6 17/22/6 12/21/6
f 1/3/1 2/4/1 9/2/1 19/1/1
f 2/7/2 5/8/2 14/6/2 9/5/2
f 5/11/3 7/12/3 20/10/3 14/9/3
f 7/15/4 1/16/4 19/14/4 20/13/4
f 7/19/5 5/20/5 2/18/5 1/17/5
f 19/23/6 9/24/6 14/22/6 20/21/6

