# ProBuilder 5.2.4
# https://unity3d.com/unity/features/worldbuilding/probuilder
# 2025-04-27 오후 10:05:46

mtllib ./L_Tetromino.mtl
o L_Tetromino

g L_Tetromino
v 0.8165402 -0.2546901 0.05224943
v -0.1834598 -0.2546901 0.05224943
v 0.8165402 0.7453099 0.05224943
v -0.1834598 0.7453099 0.05224943
v -0.1834598 -0.2546901 -0.9477506
v -0.1834598 0.7453099 -0.9477506
v 0.8165402 -0.2546901 -0.9477506
v 0.8165402 0.7453099 -0.9477506
v -0.1834598 1.74531 0.05224943
v -1.18346 1.74531 0.05224943
v -0.1834598 2.74531 0.05224943
v -1.18346 2.74531 0.05224943
v -1.18346 1.74531 -0.9477506
v -1.18346 2.74531 -0.9477506
v -0.1834598 1.74531 -0.9477506
v -0.1834598 2.74531 -0.9477506
v -1.18346 0.7453099 0.05224943
v -1.18346 0.7453099 -0.9477506
v -1.18346 -0.2546901 0.05224943
v -1.18346 -0.2546901 -0.9477506

vt 0.8165402 -0.2546901
vt -0.1834598 -0.2546901
vt 0.8165402 0.7453099
vt -0.1834598 0.7453099
vt 0.05224943 -0.2546901
vt -0.9477506 -0.2546901
vt 0.05224943 0.7453099
vt -0.9477506 0.7453099
vt 0.1834598 -0.2546901
vt -0.8165402 -0.2546901
vt 0.1834598 0.7453099
vt -0.8165402 0.7453099
vt 0.9477506 -0.2546901
vt -0.05224943 -0.2546901
vt 0.9477506 0.7453099
vt -0.05224943 0.7453099
vt -0.8165402 0.05224943
vt 0.1834598 0.05224943
vt -0.8165402 -0.9477506
vt 0.1834598 -0.9477506
vt 0.8165402 -0.9477506
vt -0.1834598 -0.9477506
vt 0.8165402 0.05224943
vt -0.1834598 0.05224943

vn 0 0 1
vn -1 0 0
vn 0 0 -1
vn 1 0 0
vn 0 1 0
vn 0 -1 0

usemtl L_Tetromino_Material
f 3/3/1 4/4/1 2/2/1 1/1/1
f 4/7/2 6/8/2 5/6/2 2/5/2
f 6/11/3 8/12/3 7/10/3 5/9/3
f 8/15/4 3/16/4 1/14/4 7/13/4
f 8/19/5 6/20/5 4/18/5 3/17/5
f 1/23/6 2/24/6 5/22/6 7/21/6
f 11/3/1 12/4/1 10/2/1 9/1/1
f 12/7/2 14/8/2 13/6/2 10/5/2
f 14/11/3 16/12/3 15/10/3 13/9/3
f 16/15/4 11/16/4 9/14/4 15/13/4
f 16/19/5 14/20/5 12/18/5 11/17/5
f 9/23/6 10/24/6 13/22/6 15/21/6
f 9/3/1 10/4/1 17/2/1 4/1/1
f 10/7/2 13/8/2 18/6/2 17/5/2
f 13/11/3 15/12/3 6/10/3 18/9/3
f 15/15/4 9/16/4 4/14/4 6/13/4
f 15/19/5 13/20/5 10/18/5 9/17/5
f 4/23/6 17/24/6 18/22/6 6/21/6
f 4/3/1 17/4/1 19/2/1 2/1/1
f 17/7/2 18/8/2 20/6/2 19/5/2
f 18/11/3 6/12/3 5/10/3 20/9/3
f 6/15/4 4/16/4 2/14/4 5/13/4
f 6/19/5 18/20/5 17/18/5 4/17/5
f 2/23/6 19/24/6 20/22/6 5/21/6

