# ProBuilder 5.2.4
# https://unity3d.com/unity/features/worldbuilding/probuilder
# 2025-04-27 오후 10:05:46

mtllib ./O_Tetromino.mtl
o O_Tetromino

g O_Tetromino
v 0.6976181 -0.3560069 0.9758332
v -0.3023819 -0.3560069 0.9758332
v 0.6976181 0.6439931 0.9758332
v -0.3023819 0.6439931 0.9758332
v -0.3023819 -0.3560069 -0.02416682
v -0.3023819 0.6439931 -0.02416682
v 0.6976181 -0.3560069 -0.02416682
v 0.6976181 0.6439931 -0.02416682
v -1.302382 0.6439931 0.9758332
v -0.3023819 1.643993 0.9758332
v -1.302382 1.643993 0.9758332
v -1.302382 0.6439931 -0.02416682
v -1.302382 1.643993 -0.02416682
v -0.3023819 1.643993 -0.02416682
v 0.6976181 1.643993 0.9758332
v 0.6976181 1.643993 -0.02416682
v -1.302382 -0.3560069 0.9758332
v -1.302382 -0.3560069 -0.02416682

vt 0.6976181 -0.3560069
vt -0.3023819 -0.3560069
vt 0.6976181 0.6439931
vt -0.3023819 0.6439931
vt 0.9758332 -0.3560069
vt -0.02416682 -0.3560069
vt 0.9758332 0.6439931
vt -0.02416682 0.6439931
vt 0.3023819 -0.3560069
vt -0.6976181 -0.3560069
vt 0.3023819 0.6439931
vt -0.6976181 0.6439931
vt 0.02416682 -0.3560069
vt -0.9758332 -0.3560069
vt 0.02416682 0.6439931
vt -0.9758332 0.6439931
vt -0.6976181 0.9758332
vt 0.3023819 0.9758332
vt -0.6976181 -0.02416682
vt 0.3023819 -0.02416682
vt 0.6976181 -0.02416682
vt -0.3023819 -0.02416682
vt 0.6976181 0.9758332
vt -0.3023819 0.9758332

vn 0 0 1
vn -1 0 0
vn 0 0 -1
vn 1 0 0
vn 0 1 0
vn 0 -1 0

usemtl O_Tetromino_Material
f 3/3/1 4/4/1 2/2/1 1/1/1
f 4/7/2 6/8/2 5/6/2 2/5/2
f 6/11/3 8/12/3 7/10/3 5/9/3
f 8/15/4 3/16/4 1/14/4 7/13/4
f 8/19/5 6/20/5 4/18/5 3/17/5
f 1/23/6 2/24/6 5/22/6 7/21/6
f 10/3/1 11/4/1 9/2/1 4/1/1
f 11/7/2 13/8/2 12/6/2 9/5/2
f 13/11/3 14/12/3 6/10/3 12/9/3
f 14/15/4 10/16/4 4/14/4 6/13/4
f 14/19/5 13/20/5 11/18/5 10/17/5
f 4/23/6 9/24/6 12/22/6 6/21/6
f 15/3/1 10/4/1 4/2/1 3/1/1
f 10/7/2 14/8/2 6/6/2 4/5/2
f 14/11/3 16/12/3 8/10/3 6/9/3
f 16/15/4 15/16/4 3/14/4 8/13/4
f 16/19/5 14/20/5 10/18/5 15/17/5
f 3/23/6 4/24/6 6/22/6 8/21/6
f 4/3/1 9/4/1 17/2/1 2/1/1
f 9/7/2 12/8/2 18/6/2 17/5/2
f 12/11/3 6/12/3 5/10/3 18/9/3
f 6/15/4 4/16/4 2/14/4 5/13/4
f 6/19/5 12/20/5 9/18/5 4/17/5
f 2/23/6 17/24/6 18/22/6 5/21/6

