# ProBuilder 5.2.4
# https://unity3d.com/unity/features/worldbuilding/probuilder
# 2025-04-27 오후 10:05:46

mtllib ./S_Tetromino.mtl
o S_Tetromino

g S_Tetromino
v 0.8165402 -0.2546901 0.05224943
v -0.1834598 -0.2546901 0.05224943
v 0.8165402 0.7453099 0.05224943
v -0.1834598 0.7453099 0.05224943
v -0.1834598 -0.2546901 -0.9477506
v -0.1834598 0.7453099 -0.9477506
v 0.8165402 -0.2546901 -0.9477506
v 0.8165402 0.7453099 -0.9477506
v 2.81654 0.7453099 0.05224943
v 1.81654 0.7453099 0.05224943
v 2.81654 1.74531 0.05224943
v 1.81654 1.74531 0.05224943
v 1.81654 0.7453099 -0.9477506
v 1.81654 1.74531 -0.9477506
v 2.81654 0.7453099 -0.9477506
v 2.81654 1.74531 -0.9477506
v 0.8165402 1.74531 0.05224943
v 0.8165402 1.74531 -0.9477506
v 1.81654 -0.2546901 0.05224943
v 1.81654 -0.2546901 -0.9477506

vt 0.8165402 -0.2546901
vt -0.1834598 -0.2546901
vt 0.8165402 0.7453099
vt -0.1834598 0.7453099
vt 0.05224943 -0.2546901
vt -0.9477506 -0.2546901
vt 0.05224943 0.7453099
vt -0.9477506 0.7453099
vt 0.1834598 -0.2546901
vt -0.8165402 -0.2546901
vt 0.1834598 0.7453099
vt -0.8165402 0.7453099
vt 0.9477506 -0.2546901
vt -0.05224943 -0.2546901
vt 0.9477506 0.7453099
vt -0.05224943 0.7453099
vt -0.8165402 0.05224943
vt 0.1834598 0.05224943
vt -0.8165402 -0.9477506
vt 0.1834598 -0.9477506
vt 0.8165402 -0.9477506
vt -0.1834598 -0.9477506
vt 0.8165402 0.05224943
vt -0.1834598 0.05224943

vn 0 0 1
vn -1 0 0
vn 0 0 -1
vn 1 0 0
vn 0 1 0
vn 0 -1 0

usemtl S_Tetromino_Material
f 3/3/1 4/4/1 2/2/1 1/1/1
f 4/7/2 6/8/2 5/6/2 2/5/2
f 6/11/3 8/12/3 7/10/3 5/9/3
f 8/15/4 3/16/4 1/14/4 7/13/4
f 8/19/5 6/20/5 4/18/5 3/17/5
f 1/23/6 2/24/6 5/22/6 7/21/6
f 11/3/1 12/4/1 10/2/1 9/1/1
f 12/7/2 14/8/2 13/6/2 10/5/2
f 14/11/3 16/12/3 15/10/3 13/9/3
f 16/15/4 11/16/4 9/14/4 15/13/4
f 16/19/5 14/20/5 12/18/5 11/17/5
f 9/23/6 10/24/6 13/22/6 15/21/6
f 12/3/1 17/4/1 3/2/1 10/1/1
f 17/7/2 18/8/2 8/6/2 3/5/2
f 18/11/3 14/12/3 13/10/3 8/9/3
f 14/15/4 12/16/4 10/14/4 13/13/4
f 14/19/5 18/20/5 17/18/5 12/17/5
f 10/23/6 3/24/6 8/22/6 13/21/6
f 10/3/1 3/4/1 1/2/1 19/1/1
f 3/7/2 8/8/2 7/6/2 1/5/2
f 8/11/3 13/12/3 20/10/3 7/9/3
f 13/15/4 10/16/4 19/14/4 20/13/4
f 13/19/5 8/20/5 3/18/5 10/17/5
f 19/23/6 1/24/6 7/22/6 20/21/6

