# ProBuilder 5.2.4
# https://unity3d.com/unity/features/worldbuilding/probuilder
# 2025-04-27 오후 10:05:46

mtllib ./T_Tetromino.mtl
o T_Tetromino

g T_Tetromino
v 0.8165402 -0.2546901 0.05224943
v -0.1834598 -0.2546901 0.05224943
v 0.8165402 0.7453099 0.05224943
v -0.1834598 0.7453099 0.05224943
v -0.1834598 -0.2546901 -0.9477506
v -0.1834598 0.7453099 -0.9477506
v 0.8165402 -0.2546901 -0.9477506
v 0.8165402 0.7453099 -0.9477506
v -1.18346 0.7453099 0.05224943
v -0.1834598 1.74531 0.05224943
v -1.18346 1.74531 0.05224943
v -1.18346 0.7453099 -0.9477506
v -1.18346 1.74531 -0.9477506
v -0.1834598 1.74531 -0.9477506
v 0.8165402 1.74531 0.05224943
v 0.8165402 1.74531 -0.9477506
v 1.81654 0.7453099 0.05224943
v 1.81654 1.74531 0.05224943
v 1.81654 0.7453099 -0.9477506
v 1.81654 1.74531 -0.9477506

vt 0.8165402 -0.2546901
vt -0.1834598 -0.2546901
vt 0.8165402 0.7453099
vt -0.1834598 0.7453099
vt 0.05224943 -0.2546901
vt -0.9477506 -0.2546901
vt 0.05224943 0.7453099
vt -0.9477506 0.7453099
vt 0.1834598 -0.2546901
vt -0.8165402 -0.2546901
vt 0.1834598 0.7453099
vt -0.8165402 0.7453099
vt 0.9477506 -0.2546901
vt -0.05224943 -0.2546901
vt 0.9477506 0.7453099
vt -0.05224943 0.7453099
vt -0.8165402 0.05224943
vt 0.1834598 0.05224943
vt -0.8165402 -0.9477506
vt 0.1834598 -0.9477506
vt 0.8165402 -0.9477506
vt -0.1834598 -0.9477506
vt 0.8165402 0.05224943
vt -0.1834598 0.05224943

vn 0 0 1
vn -1 0 0
vn 0 0 -1
vn 1 0 0
vn 0 1 0
vn 0 -1 0

usemtl T_Tetromino_Material
f 3/3/1 4/4/1 2/2/1 1/1/1
f 4/7/2 6/8/2 5/6/2 2/5/2
f 6/11/3 8/12/3 7/10/3 5/9/3
f 8/15/4 3/16/4 1/14/4 7/13/4
f 8/19/5 6/20/5 4/18/5 3/17/5
f 1/23/6 2/24/6 5/22/6 7/21/6
f 10/3/1 11/4/1 9/2/1 4/1/1
f 11/7/2 13/8/2 12/6/2 9/5/2
f 13/11/3 14/12/3 6/10/3 12/9/3
f 14/15/4 10/16/4 4/14/4 6/13/4
f 14/19/5 13/20/5 11/18/5 10/17/5
f 4/23/6 9/24/6 12/22/6 6/21/6
f 15/3/1 10/4/1 4/2/1 3/1/1
f 10/7/2 14/8/2 6/6/2 4/5/2
f 14/11/3 16/12/3 8/10/3 6/9/3
f 16/15/4 15/16/4 3/14/4 8/13/4
f 16/19/5 14/20/5 10/18/5 15/17/5
f 3/23/6 4/24/6 6/22/6 8/21/6
f 18/3/1 15/4/1 3/2/1 17/1/1
f 15/7/2 16/8/2 8/6/2 3/5/2
f 16/11/3 20/12/3 19/10/3 8/9/3
f 20/15/4 18/16/4 17/14/4 19/13/4
f 20/19/5 16/20/5 15/18/5 18/17/5
f 17/23/6 3/24/6 8/22/6 19/21/6

